<svg xmlns="http://www.w3.org/2000/svg" width="31.694" height="33.444" viewBox="0 0 31.694 33.444"><path d="M31.551,26.7l-.158-.5a4.567,4.567,0,0,0-2.723-2.717l-4.164-1.2a3.929,3.929,0,0,0-3.566.984l-1.507,1.591A16.452,16.452,0,0,1,8.184,12.983l1.507-1.591a4.473,4.473,0,0,0,.932-3.761l-1.135-4.4A4.6,4.6,0,0,0,6.911.362L6.436.193a3.635,3.635,0,0,0-3.52.876L.661,3.451A4.578,4.578,0,0,0,0,5.088a28.924,28.924,0,0,0,7.79,20.174,25.93,25.93,0,0,0,19.056,8.224,4.061,4.061,0,0,0,1.619-.69l2.254-2.379A4.151,4.151,0,0,0,31.551,26.7Z" transform="translate(0 -0.043)" fill="#fff"/></svg>