<svg xmlns="http://www.w3.org/2000/svg" width="84.743" height="84.762" viewBox="0 0 84.743 84.762"><g transform="translate(-8 503.988)"><path d="M232.169-503.125a4.435,4.435,0,0,0-3.058,7.107,5.106,5.106,0,0,0,2.324,1.589c.273,0,.308.188.308,2.136v2.136h2.05v-4.271l.632-.256a4.494,4.494,0,0,0,2.785-4.955A4.323,4.323,0,0,0,232.169-503.125Z" transform="translate(-182.567 -0.676)" fill="#fff"/><path d="M315.741-503.768a5.062,5.062,0,0,0-2.546,2.512l-.29.837-2.665.051c-2.631.051-2.682.051-3.52.564a4.619,4.619,0,0,0-1.35,1.35l-.513.837-.085,6.561c-.085,6.475-.085,6.578.273,6.9a.711.711,0,0,0,1.2-.034c.308-.342.325-.769.41-6.851l.085-6.492.564-.5.547-.5H312.8l.41.8a4.521,4.521,0,0,0,8.03.393,4.319,4.319,0,0,0-.735-5.3A4.763,4.763,0,0,0,315.741-503.768Z" transform="translate(-246.03)" fill="#fff"/><path d="M110.881-502.632a4.443,4.443,0,0,0,1.9,8.526,4.37,4.37,0,0,0,4.186-2.768l.427-.854,2.341.068c1.982.051,2.426.1,2.836.393.923.615.957.888.957,7.517a56.469,56.469,0,0,0,.171,6.424c.256.461.94.41,1.35-.12.342-.444.359-.649.359-6.39,0-6.544-.068-7.073-1.042-8.252s-1.606-1.384-4.528-1.452l-2.58-.068-.308-.683a5.458,5.458,0,0,0-2.358-2.375A5.231,5.231,0,0,0,110.881-502.632Z" transform="translate(-83.062 -0.828)" fill="#fff"/><path d="M120.16-413.624a14.322,14.322,0,0,0-.615,2.7c-.205,1.264-.393,2.307-.41,2.307-.017.017-.769.273-1.657.581a26.729,26.729,0,0,0-2.6,1.059l-.991.5-2.153-1.452c-1.64-1.128-2.238-1.435-2.512-1.35a55.771,55.771,0,0,0-6.509,6.509c-.085.273.222.871,1.35,2.512l1.452,2.153-.666,1.316a26.708,26.708,0,0,0-1.469,3.93c0,.017-1.093.222-2.443.444a15.567,15.567,0,0,0-2.682.632c-.222.171-.256.974-.256,4.7,0,4.049.034,4.493.29,4.733a11.017,11.017,0,0,0,2.614.632,16.858,16.858,0,0,1,2.426.5,14.765,14.765,0,0,1,.564,1.486,22.938,22.938,0,0,0,1.059,2.529l.581,1.179-1.025,1.469c-1.674,2.375-1.965,2.922-1.794,3.263a71.855,71.855,0,0,0,6.509,6.578c.29.085.854-.222,2.512-1.35l2.153-1.452,1.316.666a26.706,26.706,0,0,0,3.93,1.469c.017,0,.222,1.093.444,2.443a15.569,15.569,0,0,0,.632,2.682c.171.222.974.256,4.7.256,4.049,0,4.493-.034,4.733-.308a10.531,10.531,0,0,0,.632-2.6,15.765,15.765,0,0,1,.5-2.409,10.863,10.863,0,0,1,1.316-.478,23.125,23.125,0,0,0,2.563-1.042l1.367-.666,1.452,1.025c2.631,1.828,2.887,1.965,3.383,1.674a62.022,62.022,0,0,0,6.356-6.766,13.027,13.027,0,0,0-1.435-2.358l-1.435-2.05.649-1.281a24.977,24.977,0,0,0,1.111-2.614,7.158,7.158,0,0,1,.6-1.4c.068-.034,1.111-.239,2.324-.444a12.731,12.731,0,0,0,2.6-.6c.376-.239.376-.273.376-4.75,0-3.725-.034-4.545-.256-4.716a39.033,39.033,0,0,0-5.04-1.025,5.465,5.465,0,0,1-.5-1.247,25.573,25.573,0,0,0-1.059-2.563,9.914,9.914,0,0,1-.666-1.5,19.538,19.538,0,0,1,1.384-2.2c1.076-1.572,1.367-2.119,1.3-2.426a56.6,56.6,0,0,0-6.646-6.629,27.2,27.2,0,0,0-4.015,2.58c-.376.273-.444.256-2.238-.547-1.025-.444-2.221-.906-2.648-1.025a2.661,2.661,0,0,1-.888-.325c-.034-.051-.239-1.111-.444-2.324a12.731,12.731,0,0,0-.6-2.6c-.239-.376-.273-.376-4.767-.376C120.4-414,120.382-414,120.16-413.624Zm7.91,10.49a17.406,17.406,0,0,1,6.663,2.887,21.305,21.305,0,0,1,3.332,3.349,16.4,16.4,0,0,1,0,19.785,16.562,16.562,0,0,1-5.006,4.408,16.324,16.324,0,0,1-19.648-2.717,16.04,16.04,0,0,1-4.818-11.584,16.456,16.456,0,0,1,13.326-16.146A20.073,20.073,0,0,1,128.07-403.134Z" transform="translate(-74.623 -74.613)" fill="#fff"/><path d="M183.8-341.422A14.9,14.9,0,0,0,171.261-328.8a14.655,14.655,0,0,0,8.645,15.172,12.451,12.451,0,0,0,5.724,1.145,12.906,12.906,0,0,0,3.332-.308,14.684,14.684,0,0,0,11.122-13.344A14.79,14.79,0,0,0,189.2-341.046,16.206,16.206,0,0,0,183.8-341.422Zm4.288,5.228a9.839,9.839,0,0,1,5.741,4.1,9.473,9.473,0,0,1,.393,9.636,10,10,0,0,1-8.594,5.3,9.9,9.9,0,0,1-9.739-9.739,9.652,9.652,0,0,1,7.5-9.38A13.6,13.6,0,0,1,188.09-336.194Z" transform="translate(-135.259 -134.719)" fill="#fff"/><path d="M217.938-300.187a6.945,6.945,0,0,0-3.332,1.093,7.83,7.83,0,0,0-2.614,10.371,9.509,9.509,0,0,0,3.092,3.024,7.761,7.761,0,0,0,10.986-4.8,7.749,7.749,0,0,0-2.734-8.338A7.044,7.044,0,0,0,217.938-300.187Z" transform="translate(-168.335 -168.932)" fill="#fff"/><path d="M11.085-403.546A4.368,4.368,0,0,0,8.13-399a4.534,4.534,0,0,0,2.8,3.878l.752.29v2.494c0,2.836.171,3.434,1.281,4.51,1.128,1.093,1.452,1.145,8.406,1.145a58.791,58.791,0,0,0,6.561-.171.908.908,0,0,0-.051-1.435c-.325-.239-1.247-.273-6.544-.273-5.86,0-6.185-.017-6.714-.342-.871-.53-1.059-1.213-1.059-3.656V-394.7l.752-.342a5.976,5.976,0,0,0,2.426-2.272,5.229,5.229,0,0,0,.154-3.5,5.115,5.115,0,0,0-2.2-2.477A5.98,5.98,0,0,0,11.085-403.546Z" transform="translate(-0.096 -83.137)" fill="#fff"/><path d="M401.038-403.184a4.265,4.265,0,0,0-3.861,4.459,4.593,4.593,0,0,0,2.87,4.254l.752.342-.068,2.324c-.051,1.982-.1,2.426-.393,2.836-.615.923-.888.957-7.517.957a56.471,56.471,0,0,0-6.424.171c-.427.239-.41.94.034,1.384.342.342.478.342,6.783.29,6.219-.051,6.458-.068,7.125-.427a5.874,5.874,0,0,0,1.23-.94c.923-.957,1.076-1.555,1.076-4.305v-2.477l.769-.342a4.594,4.594,0,0,0,1.572-7.33A4.052,4.052,0,0,0,401.038-403.184Z" transform="translate(-313.489 -83.516)" fill="#fff"/><path d="M434.4-284.377a4.517,4.517,0,0,0-3.041,2.853l-.12.5H427v2.05h4.186l.308.769a5.2,5.2,0,0,0,4.22,2.819,5.156,5.156,0,0,0,2.887-1.145,4.5,4.5,0,0,0,.308-6.509A4.663,4.663,0,0,0,434.4-284.377Z" transform="translate(-347.413 -181.957)" fill="#fff"/><path d="M10.99-282.7A4.407,4.407,0,0,0,8-278.322a4.5,4.5,0,0,0,7.056,3.588,4.53,4.53,0,0,0,1.76-2.272l.1-.444h4.408v-1.879H17.055l-.41-.837a4.736,4.736,0,0,0-4.2-2.734A5.271,5.271,0,0,0,10.99-282.7Z" transform="translate(0 -183.313)" fill="#fff"/><path d="M14.866-208.779a4.205,4.205,0,0,0-2.084,1.247c-.923.957-1.076,1.555-1.076,4.305v2.46l-.923.444a4.388,4.388,0,0,0-2.631,4.357,4.363,4.363,0,0,0,2.46,3.878,5.889,5.889,0,0,0,4.083-.051,4.561,4.561,0,0,0-.29-8.252l-.82-.359v-2.136c0-2.443.188-3.127,1.059-3.656.547-.325.854-.342,6.817-.342,6.92,0,6.885,0,6.783-1.025-.085-1.008-.222-1.025-6.885-1.008C18.078-208.9,15.156-208.847,14.866-208.779Z" transform="translate(-0.117 -244.656)" fill="#fff"/><path d="M386.217-207.675a.989.989,0,0,0,.137,1.264c.29.256.991.29,6.544.29,5.929,0,6.253.017,6.783.342.871.53,1.059,1.213,1.059,3.656v2.136l-.735.325a4.563,4.563,0,0,0-.376,8.286,5.889,5.889,0,0,0,4.083.051,4.868,4.868,0,0,0,2.067-2.084,5.344,5.344,0,0,0,.171-3.6,5,5,0,0,0-2.529-2.529l-.8-.308v-2.494c0-2.836-.171-3.434-1.281-4.51-1.145-1.111-1.435-1.145-8.56-1.145C386.644-208,386.387-207.983,386.217-207.675Z" transform="translate(-313.464 -245.417)" fill="#fff"/><path d="M120.608-125.651c-.256.29-.29.974-.29,6.424,0,8.133.137,7.842-3.844,7.928l-2.392.068-.239-.649a5.268,5.268,0,0,0-.94-1.4,4.517,4.517,0,0,0-6.868.017,4.517,4.517,0,0,0,1.384,6.988,5.251,5.251,0,0,0,3.656.222,4.918,4.918,0,0,0,2.682-2.563l.325-.769h2.477c2.238,0,2.563-.034,3.332-.41a3.973,3.973,0,0,0,2.05-2.1c.342-.8.376-13.532.051-13.856A1.112,1.112,0,0,0,120.608-125.651Z" transform="translate(-80.368 -313.449)" fill="#fff"/><path d="M302.205-125.761c-.154.154-.205,1.879-.205,6.7,0,6.185.017,6.544.359,7.278a3.425,3.425,0,0,0,1.948,1.982c.769.376,1.076.41,3.366.41h2.494l.205.6a5.64,5.64,0,0,0,2.6,2.648,3.683,3.683,0,0,0,2.016.308,3.813,3.813,0,0,0,2.836-1.281,4.516,4.516,0,0,0,.854-5.228,4.129,4.129,0,0,0-4.305-2.477,4.2,4.2,0,0,0-3.93,2.785l-.325.786-2.392-.051c-3.964-.085-3.844.171-3.844-8.064,0-5.279-.034-6.1-.273-6.322A1.183,1.183,0,0,0,302.205-125.761Z" transform="translate(-243.769 -313.441)" fill="#fff"/><path d="M232.67-84.813v2.187l-.632.222a5.7,5.7,0,0,0-2.614,2.614,3.683,3.683,0,0,0-.308,2.016,4.32,4.32,0,0,0,1.572,3.195,4.506,4.506,0,0,0,7.415-3.742,4.577,4.577,0,0,0-2.717-3.981l-.837-.427V-87H232.67Z" transform="translate(-183.323 -345.744)" fill="#fff"/></g></svg>