<svg xmlns="http://www.w3.org/2000/svg" width="93.169" height="93.196" viewBox="0 0 93.169 93.196"><defs><style>.a{fill:#fff;}</style></defs><g transform="translate(-6 487.838)"><path class="a" d="M48.677-487.556a23.09,23.09,0,0,0-19.194,22.7c0,5.268.157,5.719,8.011,21.936l6.64,13.71-10.87.1-10.87.1-7.6,15.962c-4.191,8.774-7.873,16.511-8.206,17.2L6-394.642H52.634c25.638,0,46.575-.059,46.536-.137-.078-.137-7.325-15.316-14.239-29.829l-2.1-4.407-10.87-.1-10.85-.1,1.312-2.742c1.312-2.722,2.233-4.622,8.716-18.019,4.133-8.539,4.387-9.362,4.524-14.1a17.538,17.538,0,0,0-.333-5.19,23.2,23.2,0,0,0-18.939-18.313A27.525,27.525,0,0,0,48.677-487.556Zm7.54,15.434a8.226,8.226,0,0,1,3.9,4c.588,1.234.627,1.449.627,3.467s-.039,2.233-.607,3.447a8.415,8.415,0,0,1-8.931,4.681,8.49,8.49,0,0,1-6.091-4.642c-.588-1.253-.627-1.469-.627-3.486s.039-2.233.627-3.467a8.544,8.544,0,0,1,3.565-3.858,7.046,7.046,0,0,1,4.387-.921A5.855,5.855,0,0,1,56.218-472.123ZM37.729-424.059v1.743l-1.9.117a19.033,19.033,0,0,0-10.929,4.27,22.564,22.564,0,0,1-3.134,2.037c-1.175.529-2.331.8-2.233.548.039-.117,1.175-2.507,2.507-5.308l2.448-5.131h13.24Zm10.126,2.527c3.29,6.816,4.583,9.519,4.524,9.577a21.361,21.361,0,0,1-1.821-2.037,41.8,41.8,0,0,0-6.169-6.307,13.675,13.675,0,0,0-3.976-1.763c-.842,0-.921-.176-.921-1.978v-1.743h6.287Zm17.588-3.721c1.234,6.13,5.739,8.481,16.217,8.481h3.369l1.919,4.054,1.939,4.035-.353.764c-.9,2.017-4.054,3.447-9.009,4.093a58.13,58.13,0,0,1-12.692-.2,26.007,26.007,0,0,1-7.619-2.507,28.784,28.784,0,0,1-5.876-4.309l-.744-.764,1.273-2.644c.685-1.449,2.213-4.622,3.408-7.09l2.174-4.446h5.9Zm17,3.075c.94,1.978,1.7,3.663,1.7,3.721a33.684,33.684,0,0,1-6.326-.078c-4.093-.333-7.012-1.293-8.716-2.84a6.7,6.7,0,0,1-1.919-3.584l-.137-.823h13.71ZM37.729-409.331v11.36H24.489c-7.54,0-13.2-.078-13.162-.176.02-.1,1.684-3.565,3.663-7.717l3.6-7.56,1.332-.215c1.782-.294,3.565-1.195,6.052-3.036a18.031,18.031,0,0,1,10.929-4l.823-.02Zm4.211-10.5a14.484,14.484,0,0,1,2.194,1.371c1.116.842,1.8,1.606,6.13,6.659,5.151,6.013,10.772,8.911,18.959,9.734a69.657,69.657,0,0,0,11.105-.215c4.035-.607,6.973-1.763,8.579-3.369a6.162,6.162,0,0,1,1-.9c.078.137,3.937,8.246,4,8.4.039.1-11.164.176-27.165.176H39.492v-22.563l.744.137A8.661,8.661,0,0,1,41.94-419.829Z" transform="translate(0 0)"/></g></svg>