<svg xmlns="http://www.w3.org/2000/svg" xmlns:xlink="http://www.w3.org/1999/xlink" width="573.089" height="438.719" viewBox="0 0 573.089 438.719"><defs><linearGradient id="a" x1="0.5" y1="1" x2="0.5" gradientUnits="objectBoundingBox"><stop offset="0" stop-color="gray" stop-opacity="0.251"/><stop offset="0.535" stop-color="gray" stop-opacity="0.122"/><stop offset="1" stop-color="gray" stop-opacity="0.102"/></linearGradient><clipPath id="b"><path d="M569.671,450.335H483.759L352.709,463,220.644,450.335V139.96l131.517,9.5,134.357-9.5,131.436,17.947V401.774Z" transform="translate(-220.644 -139.96)" fill="#175589"/></clipPath><linearGradient id="c" x1="0.5" y1="1" x2="0.5" gradientUnits="objectBoundingBox"><stop offset="0" stop-opacity="0.122"/><stop offset="0.551" stop-opacity="0.09"/><stop offset="1" stop-opacity="0.02"/></linearGradient></defs><g transform="translate(-18.377 21.22)"><path d="M366.988.5c55.95,33.2,117.156,66.7,128.421,108.723s-27.036,92.582-70.97,128.213c-43.558,35.327-92.749,55.427-148.323,79.791C220.542,341.281,158.585,369.3,96.252,365.645c-62.333-3.959-125.417-39.9-153.58-88.014C-85.115,229.513-77.605,169.213-59.581,114.7-41.557,60.491-12.268,12.068,34.294-22.65c46.187-34.718,110.4-55.123,167.849-49.032S311.038-32.7,366.988.5Z" transform="translate(94.067 51.531)" fill="rgba(23,85,137,0.12)"/><g transform="translate(77.934 17.593)"><path d="M491.537,443.1h-83.4L266.1,456.906,122.951,443.1v-338.2L265.5,115.26l145.63-10.353L553.6,124.462l-3.657,259.712Z" transform="translate(-122.951 -104.907)" fill="url(#a)"/><path d="M493.713,442.467H412.141L273.2,455.9,133.19,442.467V113.412l139.433,10.073,142.444-10.073,139.347,19.027-3.577,252.693Z" transform="translate(-127.845 -108.972)" fill="#fff"/><path d="M505.121,442.41H419.21L288.16,455.079,156.1,442.41V132.035l131.517,9.5,134.357-9.5,131.436,17.947V393.849Z" transform="translate(-138.794 -117.874)" fill="#175589"/><g transform="translate(17.301 14.161)" clip-path="url(#b)"><path d="M596.142,472.479,294.451,305.409l76.63-254.6L345,40.465,307.865,163.85,11.989,0,0,28.525,298.794,193.99,230.578,420.637l26.079,10.342,28.722-95.429L584.152,501Z" transform="translate(-81.48 -68.922)" fill="#fff"/></g><path d="M813.083,684.143l1.011-64.067,61.736,2.49Z" transform="translate(-452.839 -351.161)" fill="url(#c)"/><path d="M156.1,388.993l189.353,83.838,12.584,26.085L345.5,511.966,156.1,422.137Z" transform="translate(-138.794 -240.702)" fill="#fff"/><path d="M823.856,688.674l.92-59.119,56.2,2.3Z" transform="translate(-457.988 -355.692)" fill="#fff"/><path d="M648.951,409.947l79.008-259.5,31.429,4.291L670.875,423.519Z" transform="translate(-374.383 -126.677)" fill="#fff"/><path d="M408.047,455.079,539.564,442.41V132.035l-131.517,9.5" transform="translate(-259.229 -117.874)" opacity="0.1"/><path d="M620.208,314.79c0,25.071-45.395,96.069-45.395,96.069s-45.4-71-45.4-96.069a45.395,45.395,0,1,1,90.79,0Z" transform="translate(-350.939 -187.67)" fill="#ff5252"/><circle cx="13.724" cy="13.724" r="13.724" transform="translate(210.15 110.229)" fill="#fff"/><path d="M770.464,388.993l69.2,17.756v33.144l-84.712-30.239Z" transform="translate(-425.051 -240.702)" fill="#fff"/><path d="M263.429,508.876l-17.478,120.89,19.836,4.176,26.13-111.555-.031-15.811Z" transform="translate(-181.746 -296.907)" fill="#fff"/><path d="M260.125,208.611,240.514,322.264l15.185,8.2,36.2-121.885Z" transform="translate(-179.147 -154.461)" fill="#fff"/><circle cx="4.176" cy="4.176" r="4.176" transform="translate(114.317 27.493)" fill="#ff5252"/><circle cx="4.176" cy="4.176" r="4.176" transform="translate(64.205 243.598)" fill="#ff5252"/><circle cx="4.176" cy="4.176" r="4.176" transform="translate(60.029 274.396)" fill="#ff5252"/><circle cx="4.176" cy="4.176" r="4.176" transform="translate(104.399 267.088)" fill="#ff5252"/><circle cx="4.176" cy="4.176" r="4.176" transform="translate(32.886 141.809)" fill="#ff5252"/><circle cx="4.176" cy="4.176" r="4.176" transform="translate(361.741 137.633)" fill="#ff5252"/><circle cx="4.176" cy="4.176" r="4.176" transform="translate(325.724 282.748)" fill="#ff5252"/></g></g></svg>