<svg xmlns="http://www.w3.org/2000/svg" width="115.74" height="55.811" viewBox="0 0 115.74 55.811"><defs><style>.a{fill:#fff;}</style></defs><g transform="translate(-24.062 197.1)"><path class="a" d="M48.857-196.557c-1.812.8-2.717,2.1-3.116,4.493l-.4,2.246H41.1q-4.239,0-4.674.435a2.067,2.067,0,0,0,.254,2.826c.471.217,5.869.362,15.036.362,13.876,0,14.384-.036,15.072-.725.87-.87.906-1.558.145-2.319-.471-.507-1.848-.58-9.275-.58H48.93l.217-1.3c.4-2.5-1.848-2.319,29.637-2.319,15.688,0,28.622.145,28.731.29.109.217-3.84,39.2-4.094,40.542-.036.072-7.282.109-16.159.109-15.072,0-16.159-.036-16.34-.652-1.485-4.565-4.2-6.739-8.478-6.775a10.32,10.32,0,0,0-9.239,5.942l-.652,1.485H49c-2.283,0-3.587-.145-3.659-.4-.109-.29.942-11.3,1.123-11.847.036-.036,1.993-.072,4.348-.072,3.7,0,4.42-.109,5.145-.688s.8-.833.507-1.7L56.1-168.26H24.583l-.362,1.051c-.29.87-.217,1.123.507,1.7.761.616,1.558.688,9.529.688h8.7l-.181.8c-.109.471-.4,3.08-.652,5.8-.543,5.978-.326,7.319,1.449,8.514,1.087.725,1.667.833,4.927.833h3.7l.4,1.341A8.57,8.57,0,0,0,63.6-141.776a11.224,11.224,0,0,0,6.3-5.326l.87-1.775H91.066c20.18,0,20.289,0,20.289.725,0,2.283,3.225,5.8,5.978,6.485a7.623,7.623,0,0,0,5.145-.145,10.427,10.427,0,0,0,6.123-5.036l1.051-2.029h2.536c2.826,0,4.384-.688,5.471-2.355.761-1.159,2.427-14.782,2.1-17.028-.362-2.391-1.268-3.7-6.521-9.637-7.065-7.971-6.848-7.862-16.014-7.9l-6.63-.036.29-3.007c.507-5.326.109-6.739-2.246-7.717C106.862-197.281,50.524-197.281,48.857-196.557Zm75.287,14.673c1.2.471,10.326,10.471,11.413,12.536l.87,1.558-.8,7.174a46.455,46.455,0,0,1-1.159,7.645,4.024,4.024,0,0,1-2.427.471h-2.029l-.652-1.848a8.751,8.751,0,0,0-9.166-5.616c-3.406.435-7.137,3.3-8.188,6.268-.435,1.2-.471,1.2-2.754,1.2h-2.319l.217-1.377c.109-.725.8-7.065,1.485-14.021.725-6.992,1.377-13.043,1.485-13.514.145-.8.217-.8,6.666-.8A51.436,51.436,0,0,1,124.144-181.883ZM64.618-155.942c3.3,1.7,3.732,5.652.978,8.768-3.587,4.058-9.674,2.355-9.674-2.717C55.922-154.384,60.922-157.862,64.618-155.942Zm58.875-.036a4.821,4.821,0,0,1,2.717,4.493c0,5.724-7.1,8.84-10.471,4.565-2.174-2.754-.725-6.992,3.043-8.949A5.61,5.61,0,0,1,123.492-155.978Z" transform="translate(0)"/><path class="a" d="M269.163-145.753a54.336,54.336,0,0,0-.833,9.348c.181.471,1.522.543,9.637.543a80.9,80.9,0,0,0,9.42-.29c0-.471-7.608-8.876-8.478-9.384C278.076-146.043,269.417-146.188,269.163-145.753Z" transform="translate(-155.743 -32.579)"/><path class="a" d="M53.19-157.27c-10.471.036-15.326.217-15.688.471a1.91,1.91,0,0,0-.036,2.427c.616.616,31.847.616,32.463,0a1.728,1.728,0,0,0-1.014-2.862C68.624-157.306,61.523-157.342,53.19-157.27Z" transform="translate(-8.282 -25.374)"/><path class="a" d="M47.664-137.6a2.1,2.1,0,0,0-.217,2.79c.58.58,35.47.616,36.557.072a1.767,1.767,0,0,0,.109-2.681c-.507-.507-2.645-.58-18.188-.58C54.62-138,48.062-137.855,47.664-137.6Z" transform="translate(-14.639 -37.688)"/></g></svg>